<svg width="98" height="20" viewBox="0 0 98 20" fill="none" xmlns="http://www.w3.org/2000/svg">
<path d="M0 0H2.56344L7.24058 13.3683L11.8952 0H14.4587L8.70219 16.033H5.75649L0 0Z" fill="white"/>
<path d="M13.9352 10.0488C13.9352 6.23254 16.1613 3.79372 19.5792 3.79372C22.3675 3.79372 24.796 5.64542 24.931 9.91335L24.9534 10.7263H16.3862C16.5661 12.9619 17.6904 14.2716 19.5792 14.2716C20.771 14.2716 21.8278 13.5942 22.3225 12.4425L24.7735 12.6232C24.0765 14.8813 21.9852 16.304 19.5792 16.304C16.1613 16.304 13.9352 13.8651 13.9352 10.0488ZM16.4311 8.91976H22.4799C22.1651 6.61643 20.9284 5.82607 19.5792 5.82607C17.8253 5.82607 16.7235 6.97774 16.4311 8.91976Z" fill="white"/>
<path d="M26.7348 4.0647H28.871L28.9384 6.32287C29.3207 4.78731 30.2201 4.0647 31.7717 4.0647H32.9185V6.00672H31.7492C29.9053 6.00672 29.0733 7.0229 29.0733 9.03267V16.033H26.7348V4.0647Z" fill="white"/>
<path d="M33.8367 7.6326C34.309 5.23895 36.1978 3.79372 38.8962 3.79372C42.1342 3.79372 43.8881 5.60025 43.8881 8.85201V13.3683C43.8881 13.9329 44.1355 14.1361 44.6077 14.1361H45.1024V16.033H44.3153C43.236 16.0556 41.8194 15.8297 41.7294 14.2039C41.2122 15.333 39.8856 16.304 37.9292 16.304C35.5457 16.304 33.6344 15.0394 33.6344 12.8941C33.6344 10.4779 35.4108 9.80044 38.1316 9.28106L41.5495 8.60361C41.527 6.68417 40.6501 5.75833 38.8962 5.75833C37.502 5.75833 36.5801 6.45836 36.2428 7.79068L33.8367 7.6326ZM36.0629 12.849C36.0629 13.7297 36.8049 14.4523 38.379 14.4523C40.2004 14.4523 41.5945 13.1651 41.5945 10.5456V10.4327L39.0311 10.8844C37.3671 11.1779 36.0629 11.3134 36.0629 12.849Z" fill="white"/>
<path d="M53.3571 7.81326C53.1098 6.54868 51.8955 5.78091 50.6588 5.78091C49.4445 5.78091 48.4551 6.41319 48.4776 7.47453C48.4776 8.55845 49.8942 9.01009 51.1085 9.2359C54.0317 9.77786 55.9655 10.5682 55.9655 12.9167C55.9655 15.2652 53.582 16.304 51.131 16.304C48.1178 16.304 45.9366 14.7458 45.7567 12.2618L48.1628 12.1038C48.3876 13.4587 49.4445 14.2942 51.1085 14.2942C52.1653 14.2942 53.537 13.9329 53.537 12.8264C53.5145 11.5166 52.0079 11.3586 50.7037 11.065C48.2302 10.5231 46.0491 9.86819 46.0491 7.56486C46.0491 5.23895 47.9154 3.79372 50.8611 3.79372C53.4021 3.79372 55.3809 5.30669 55.7631 7.67777L53.3571 7.81326Z" fill="url(#paint0_linear_2063_1117)"/>
<path d="M65.9174 4.0647L68.5933 13.3909L71.2242 4.0647H73.6302L69.965 16.033H67.3116L64.7931 7.42937L62.2747 16.033H59.6213L55.9785 4.0647H58.3621L61.0154 13.3909L63.6688 4.0647H65.9174Z" fill="url(#paint1_linear_2063_1117)"/>
<path d="M73.9809 7.6326C74.4531 5.23895 76.3419 3.79372 79.0403 3.79372C82.2783 3.79372 84.0322 5.60025 84.0322 8.85201V13.3683C84.0322 13.9329 84.2796 14.1361 84.7518 14.1361H85.2465V16.033H84.4595C83.3801 16.0556 81.9635 15.8297 81.8736 14.2039C81.3564 15.333 80.0297 16.304 78.0734 16.304C75.6898 16.304 73.7785 15.0394 73.7785 12.8941C73.7785 10.4779 75.5549 9.80044 78.2758 9.28106L81.6937 8.60361C81.6712 6.68417 80.7942 5.75833 79.0403 5.75833C77.6461 5.75833 76.7242 6.45836 76.3869 7.79068L73.9809 7.6326ZM76.207 12.849C76.207 13.7297 76.9491 14.4523 78.5231 14.4523C80.3445 14.4523 81.7386 13.1651 81.7386 10.5456V10.4327L79.1752 10.8844C77.5112 11.1779 76.207 11.3134 76.207 12.849Z" fill="url(#paint2_linear_2063_1117)"/>
<path d="M86.7318 19.4202V4.0647H88.913L88.9805 5.80349C89.6326 4.51633 90.8693 3.79372 92.6007 3.79372C96.1086 3.79372 97.7276 6.70676 97.7276 10.0488C97.7276 13.3909 96.1086 16.304 92.6007 16.304C90.9593 16.304 89.745 15.6491 89.0704 14.4071V19.4202H86.7318ZM88.8455 10.0488C88.8455 12.1941 89.8124 14.249 92.0611 14.249C94.3322 14.249 95.2541 12.2167 95.2541 10.0488C95.2541 7.90358 94.3322 5.84865 92.0611 5.84865C89.79 5.84865 88.8455 7.90358 88.8455 10.0488Z" fill="url(#paint3_linear_2063_1117)"/>
<defs>
<linearGradient id="paint0_linear_2063_1117" x1="32.9215" y1="-6.21462" x2="76.9536" y2="8.71411" gradientUnits="userSpaceOnUse">
<stop stop-color="#AD90EF"/>
<stop offset="1" stop-color="#4F91FF"/>
</linearGradient>
<linearGradient id="paint1_linear_2063_1117" x1="32.9215" y1="-6.21462" x2="76.9536" y2="8.71411" gradientUnits="userSpaceOnUse">
<stop stop-color="#AD90EF"/>
<stop offset="1" stop-color="#4F91FF"/>
</linearGradient>
<linearGradient id="paint2_linear_2063_1117" x1="32.9215" y1="-6.21462" x2="76.9536" y2="8.71411" gradientUnits="userSpaceOnUse">
<stop stop-color="#AD90EF"/>
<stop offset="1" stop-color="#4F91FF"/>
</linearGradient>
<linearGradient id="paint3_linear_2063_1117" x1="32.9215" y1="-6.21462" x2="76.9536" y2="8.71411" gradientUnits="userSpaceOnUse">
<stop stop-color="#AD90EF"/>
<stop offset="1" stop-color="#4F91FF"/>
</linearGradient>
</defs>
</svg>
